<svg width="14" height="12" viewBox="0 0 14 12" fill="none" xmlns="http://www.w3.org/2000/svg">
<path fill-rule="evenodd" clip-rule="evenodd" d="M0.5 1C0.5 0.723858 0.723858 0.5 1 0.5H13C13.2761 0.5 13.5 0.723858 13.5 1C13.5 1.27614 13.2761 1.5 13 1.5H1C0.723858 1.5 0.5 1.27614 0.5 1ZM0.5 6C0.5 5.72386 0.723858 5.5 1 5.5H9C9.27614 5.5 9.5 5.72386 9.5 6C9.5 6.27614 9.27614 6.5 9 6.5H1C0.723858 6.5 0.5 6.27614 0.5 6ZM0.5 11C0.5 10.7239 0.723858 10.5 1 10.5H5C5.27614 10.5 5.5 10.7239 5.5 11C5.5 11.2761 5.27614 11.5 5 11.5H1C0.723858 11.5 0.5 11.2761 0.5 11Z" fill="#FCFCFD"/>
</svg>
